<svg width="1180" height="610" viewBox="0 0 1180 610"
     xmlns="http://www.w3.org/2000/svg" xmlns:xlink="http://www.w3.org/1999/xlink" role="img"
     aria-label="Shreyas Viswanathan profile banner">
<defs>
  <clipPath id="canvasClip"><rect x="0" y="0" width="1180" height="610" rx="28"/></clipPath>

  <radialGradient id="blob1" cx="20%" cy="15%" r="55%">
    <stop offset="0%" stop-color="#2563EB" stop-opacity="0.35"/>
    <stop offset="100%" stop-color="#2563EB" stop-opacity="0"/>
  </radialGradient>
  <radialGradient id="blob2" cx="85%" cy="20%" r="55%">
    <stop offset="0%" stop-color="#06B6D4" stop-opacity="0.28"/>
    <stop offset="100%" stop-color="#06B6D4" stop-opacity="0"/>
  </radialGradient>
  <radialGradient id="blob3" cx="60%" cy="95%" r="60%">
    <stop offset="0%" stop-color="#10B981" stop-opacity="0.22"/>
    <stop offset="100%" stop-color="#10B981" stop-opacity="0"/>
  </radialGradient>

  <linearGradient id="asciiGrad" x1="0%" y1="0%" x2="100%" y2="100%">
    <stop offset="0%" stop-color="#2563EB">
      <animate attributeName="stop-color" values="#2563EB;#06B6D4;#10B981;#2563EB" dur="8s" repeatCount="indefinite"/>
    </stop>
    <stop offset="50%" stop-color="#06B6D4">
      <animate attributeName="stop-color" values="#06B6D4;#10B981;#2563EB;#06B6D4" dur="8s" repeatCount="indefinite"/>
    </stop>
    <stop offset="100%" stop-color="#10B981">
      <animate attributeName="stop-color" values="#10B981;#2563EB;#06B6D4;#10B981" dur="8s" repeatCount="indefinite"/>
    </stop>
  </linearGradient>

  <linearGradient id="roleGrad" x1="0%" y1="0%" x2="100%" y2="0%">
    <stop offset="0%" stop-color="#2563EB"/>
    <stop offset="100%" stop-color="#06B6D4"/>
  </linearGradient>

  <linearGradient id="nameGrad" x1="0%" y1="0%" x2="100%" y2="0%">
    <stop offset="0%" stop-color="#2563EB"/>
    <stop offset="50%" stop-color="#06B6D4"/>
    <stop offset="100%" stop-color="#10B981"/>
  </linearGradient>

  <linearGradient id="borderShimmer" x1="0%" y1="0%" x2="100%" y2="100%">
    <stop offset="0%" stop-color="#2563EB" stop-opacity="0.7"/>
    <stop offset="50%" stop-color="#06B6D4" stop-opacity="0.15"/>
    <stop offset="100%" stop-color="#10B981" stop-opacity="0.7"/>
    <animateTransform attributeName="gradientTransform" type="rotate" values="0 0.5 0.5;360 0.5 0.5" dur="10s" repeatCount="indefinite"/>
  </linearGradient>

  <linearGradient id="scanGrad" x1="0%" y1="0%" x2="0%" y2="100%">
    <stop offset="0%" stop-color="#06B6D4" stop-opacity="0"/>
    <stop offset="50%" stop-color="#06B6D4" stop-opacity="0.25"/>
    <stop offset="100%" stop-color="#06B6D4" stop-opacity="0"/>
  </linearGradient>

  <filter id="softGlow" x="-60%" y="-60%" width="220%" height="220%">
    <feGaussianBlur stdDeviation="4"/>
  </filter>
  <filter id="bigBlur" x="-60%" y="-60%" width="220%" height="220%">
    <feGaussianBlur stdDeviation="34"/>
  </filter>
  <filter id="noiseFilter" x="0" y="0" width="100%" height="100%">
    <feTurbulence type="fractalNoise" baseFrequency="0.85" numOctaves="2" stitchTiles="stitch" result="noise"/>
    <feColorMatrix in="noise" type="matrix" values="0 0 0 0 1  0 0 0 0 1  0 0 0 0 1  0 0 0 0.02 0"/>
  </filter>
</defs>

<g clip-path="url(#canvasClip)">
  <rect x="0" y="0" width="1180" height="610" fill="#FFFFFF"/>

  <g filter="url(#bigBlur)">
    <rect x="0" y="0" width="1180" height="610" fill="url(#blob1)">
      <animateTransform attributeName="transform" type="translate" values="0,0;18,10;0,0" dur="9s" repeatCount="indefinite"/>
    </rect>
    <rect x="0" y="0" width="1180" height="610" fill="url(#blob2)">
      <animateTransform attributeName="transform" type="translate" values="0,0;-14,12;0,0" dur="11s" repeatCount="indefinite"/>
    </rect>
    <rect x="0" y="0" width="1180" height="610" fill="url(#blob3)">
      <animateTransform attributeName="transform" type="translate" values="0,0;10,-14;0,0" dur="13s" repeatCount="indefinite"/>
    </rect>
  </g>

  <rect x="0" y="0" width="1180" height="610" filter="url(#noiseFilter)"/>

  <rect x="30" y="30" width="420" height="550" rx="22"
        fill="#F8FAFC" fill-opacity="0.75" stroke="rgba(15,23,42,.08)"/>
  <rect x="30" y="30" width="420" height="550" rx="22"
        fill="none" stroke="url(#borderShimmer)" stroke-width="1.4"/>
  <rect x="31" y="31" width="418" height="60" rx="20"
        fill="#0F172A" opacity="0.03"/>

  <rect x="478" y="30" width="672" height="550" rx="22"
        fill="#F8FAFC" fill-opacity="0.75" stroke="rgba(15,23,42,.08)"/>
  <rect x="478" y="30" width="672" height="550" rx="22"
        fill="none" stroke="url(#borderShimmer)" stroke-width="1.4"/>
  <rect x="479" y="31" width="670" height="60" rx="20"
        fill="#0F172A" opacity="0.03"/>

  <g clip-path="url(#canvasClip)">
    <rect x="0" y="0" width="1180" height="4" fill="url(#scanGrad)">
      <animateTransform attributeName="transform" type="translate" values="0,-20;0,630" dur="5s" repeatCount="indefinite"/>
    </rect>
  </g>

  <g>
    <circle cx="60" cy="90" r="1.6" fill="#06B6D4" opacity="0.6">
      <animate attributeName="opacity" values="0.1;0.8;0.1" dur="4s" repeatCount="indefinite"/>
      <animateTransform attributeName="transform" type="translate" values="0,0;6,-10;0,0" dur="7s" repeatCount="indefinite"/>
    </circle>
    <circle cx="1090" cy="120" r="1.8" fill="#2563EB" opacity="0.5">
      <animate attributeName="opacity" values="0.1;0.7;0.1" dur="5s" repeatCount="indefinite"/>
      <animateTransform attributeName="transform" type="translate" values="0,0;-8,8;0,0" dur="8s" repeatCount="indefinite"/>
    </circle>
    <circle cx="900" cy="540" r="2" fill="#10B981" opacity="0.5">
      <animate attributeName="opacity" values="0.1;0.7;0.1" dur="6s" repeatCount="indefinite"/>
      <animateTransform attributeName="transform" type="translate" values="0,0;10,6;0,0" dur="9s" repeatCount="indefinite"/>
    </circle>
    <circle cx="140" cy="520" r="1.5" fill="#06B6D4" opacity="0.5">
      <animate attributeName="opacity" values="0.1;0.6;0.1" dur="4.5s" repeatCount="indefinite"/>
      <animateTransform attributeName="transform" type="translate" values="0,0;-6,-8;0,0" dur="6.5s" repeatCount="indefinite"/>
    </circle>
  </g>

  <g transform="translate(30,30)">
    <circle cx="20" cy="24" r="5" fill="#EF4444"/>
    <circle cx="38" cy="24" r="5" fill="#F59E0B"/>
    <circle cx="56" cy="24" r="5" fill="#10B981"/>
    <text x="210" y="28" text-anchor="middle" font-family="Consolas,monospace" font-size="10"
          fill="#475569">portrait.ascii</text>
  </g>

  <g>
    <animateTransform attributeName="transform" type="translate" values="0,0;0,-5;0,0" dur="4.5s" repeatCount="indefinite" additive="sum"/>
    <text x="64" y="100.0" font-family="Consolas,'SFMono-Regular','Fira Code',monospace" font-size="10.2" fill="url(#asciiGrad)" opacity="0" xml:space="preserve">                ====-=       =---=================<animate attributeName="opacity" values="0;0;1;1;0" keyTimes="0;0.0;0.008;0.88;1.0" dur="7.5s" repeatCount="indefinite"/></text>
<text x="64" y="111.6" font-family="Consolas,'SFMono-Regular','Fira Code',monospace" font-size="10.2" fill="url(#asciiGrad)" opacity="0" xml:space="preserve">             =====- *%@@@@@@@%*  =---=-----=======<animate attributeName="opacity" values="0;0;1;1;0" keyTimes="0;0.0176;0.0256;0.88;1.0" dur="7.5s" repeatCount="indefinite"/></text>
<text x="64" y="123.2" font-family="Consolas,'SFMono-Regular','Fira Code',monospace" font-size="10.2" fill="url(#asciiGrad)" opacity="0" xml:space="preserve">          ========#@@@@@@@@@@@@@@%* =-------------<animate attributeName="opacity" values="0;0;1;1;0" keyTimes="0;0.0353;0.0433;0.88;1.0" dur="7.5s" repeatCount="indefinite"/></text>
<text x="64" y="134.8" font-family="Consolas,'SFMono-Regular','Fira Code',monospace" font-size="10.2" fill="url(#asciiGrad)" opacity="0" xml:space="preserve">        =========%@@@@@@@@@%@%%%@@@@% ------------<animate attributeName="opacity" values="0;0;1;1;0" keyTimes="0;0.0529;0.0609;0.88;1.0" dur="7.5s" repeatCount="indefinite"/></text>
<text x="64" y="146.4" font-family="Consolas,'SFMono-Regular','Fira Code',monospace" font-size="10.2" fill="url(#asciiGrad)" opacity="0" xml:space="preserve">       =========#@@@@@@@@@%@@@@%%@@@@@ -----------<animate attributeName="opacity" values="0;0;1;1;0" keyTimes="0;0.0706;0.0786;0.88;1.0" dur="7.5s" repeatCount="indefinite"/></text>
<text x="64" y="158.0" font-family="Consolas,'SFMono-Regular','Fira Code',monospace" font-size="10.2" fill="url(#asciiGrad)" opacity="0" xml:space="preserve">     ==========-#@@@@@@@@@@%@@%%@@@@@@*-----------<animate attributeName="opacity" values="0;0;1;1;0" keyTimes="0;0.0882;0.0962;0.88;1.0" dur="7.5s" repeatCount="indefinite"/></text>
<text x="64" y="169.6" font-family="Consolas,'SFMono-Regular','Fira Code',monospace" font-size="10.2" fill="url(#asciiGrad)" opacity="0" xml:space="preserve">  =============- @@@@@@%%%%%#=:-*%@@@%=-----------<animate attributeName="opacity" values="0;0;1;1;0" keyTimes="0;0.1059;0.1139;0.88;1.0" dur="7.5s" repeatCount="indefinite"/></text>
<text x="64" y="181.2" font-family="Consolas,'SFMono-Regular','Fira Code',monospace" font-size="10.2" fill="url(#asciiGrad)" opacity="0" xml:space="preserve"> ============-=-*@@# * =-:::.   .-%@#-------------<animate attributeName="opacity" values="0;0;1;1;0" keyTimes="0;0.1235;0.1315;0.88;1.0" dur="7.5s" repeatCount="indefinite"/></text>
<text x="64" y="192.8" font-family="Consolas,'SFMono-Regular','Fira Code',monospace" font-size="10.2" fill="url(#asciiGrad)" opacity="0" xml:space="preserve">  ==========----#@# *    .   :-==:*@ -------------<animate attributeName="opacity" values="0;0;1;1;0" keyTimes="0;0.1412;0.1492;0.88;1.0" dur="7.5s" repeatCount="indefinite"/></text>
<text x="64" y="204.4" font-family="Consolas,'SFMono-Regular','Fira Code',monospace" font-size="10.2" fill="url(#asciiGrad)" opacity="0" xml:space="preserve">  =======------- @ -=   - :.-  --. %--------------<animate attributeName="opacity" values="0;0;1;1;0" keyTimes="0;0.1588;0.1668;0.88;1.0" dur="7.5s" repeatCount="indefinite"/></text>
<text x="64" y="216.0" font-family="Consolas,'SFMono-Regular','Fira Code',monospace" font-size="10.2" fill="url(#asciiGrad)" opacity="0" xml:space="preserve">========-------::# -:...- -.::...  :.-------------<animate attributeName="opacity" values="0;0;1;1;0" keyTimes="0;0.1765;0.1845;0.88;1.0" dur="7.5s" repeatCount="indefinite"/></text>
<text x="64" y="227.6" font-family="Consolas,'SFMono-Regular','Fira Code',monospace" font-size="10.2" fill="url(#asciiGrad)" opacity="0" xml:space="preserve">=====----------- * -.   :-:      .  .-------------<animate attributeName="opacity" values="0;0;1;1;0" keyTimes="0;0.1941;0.2021;0.88;1.0" dur="7.5s" repeatCount="indefinite"/></text>
<text x="64" y="239.2" font-family="Consolas,'SFMono-Regular','Fira Code',monospace" font-size="10.2" fill="url(#asciiGrad)" opacity="0" xml:space="preserve">====-------------  -:  .- :::    . :--------------<animate attributeName="opacity" values="0;0;1;1;0" keyTimes="0;0.2118;0.2198;0.88;1.0" dur="7.5s" repeatCount="indefinite"/></text>
<text x="64" y="250.8" font-family="Consolas,'SFMono-Regular','Fira Code',monospace" font-size="10.2" fill="url(#asciiGrad)" opacity="0" xml:space="preserve">=----------------+*-:: ***= + :  :.:--------------<animate attributeName="opacity" values="0;0;1;1;0" keyTimes="0;0.2294;0.2374;0.88;1.0" dur="7.5s" repeatCount="indefinite"/></text>
<text x="64" y="262.4" font-family="Consolas,'SFMono-Regular','Fira Code',monospace" font-size="10.2" fill="url(#asciiGrad)" opacity="0" xml:space="preserve">----------------:*# -:-= -:::-: :-----------------<animate attributeName="opacity" values="0;0;1;1;0" keyTimes="0;0.2471;0.2551;0.88;1.0" dur="7.5s" repeatCount="indefinite"/></text>
<text x="64" y="274.0" font-family="Consolas,'SFMono-Regular','Fira Code',monospace" font-size="10.2" fill="url(#asciiGrad)" opacity="0" xml:space="preserve">--------------:  : * ==---:....-------------------<animate attributeName="opacity" values="0;0;1;1;0" keyTimes="0;0.2647;0.2727;0.88;1.0" dur="7.5s" repeatCount="indefinite"/></text>
<text x="64" y="285.6" font-family="Consolas,'SFMono-Regular','Fira Code',monospace" font-size="10.2" fill="url(#asciiGrad)" opacity="0" xml:space="preserve">=------------: %% .- **  ----=--------------------<animate attributeName="opacity" values="0;0;1;1;0" keyTimes="0;0.2824;0.2904;0.88;1.0" dur="7.5s" repeatCount="indefinite"/></text>
<text x="64" y="297.2" font-family="Consolas,'SFMono-Regular','Fira Code',monospace" font-size="10.2" fill="url(#asciiGrad)" opacity="0" xml:space="preserve">----------:-=*@%%@*: .-------::--------::::::::---<animate attributeName="opacity" values="0;0;1;1;0" keyTimes="0;0.3;0.308;0.88;1.0" dur="7.5s" repeatCount="indefinite"/></text>
<text x="64" y="308.8" font-family="Consolas,'SFMono-Regular','Fira Code',monospace" font-size="10.2" fill="url(#asciiGrad)" opacity="0" xml:space="preserve">-------:-=+#@@%%%%@%=   .:.  - :::-::::::::::::::-<animate attributeName="opacity" values="0;0;1;1;0" keyTimes="0;0.3176;0.3256;0.88;1.0" dur="7.5s" repeatCount="indefinite"/></text>
<text x="64" y="320.4" font-family="Consolas,'SFMono-Regular','Fira Code',monospace" font-size="10.2" fill="url(#asciiGrad)" opacity="0" xml:space="preserve">----:- *#@@@@@@%%%%%@     .:-% - :::::::::::::::--<animate attributeName="opacity" values="0;0;1;1;0" keyTimes="0;0.3353;0.3433;0.88;1.0" dur="7.5s" repeatCount="indefinite"/></text>
<text x="64" y="332.0" font-family="Consolas,'SFMono-Regular','Fira Code',monospace" font-size="10.2" fill="url(#asciiGrad)" opacity="0" xml:space="preserve">-=  *%@@@@@@@%@@@@%%%%+    .** *%#*=-:::::::-:----<animate attributeName="opacity" values="0;0;1;1;0" keyTimes="0;0.3529;0.3609;0.88;1.0" dur="7.5s" repeatCount="indefinite"/></text>
<text x="64" y="343.6" font-family="Consolas,'SFMono-Regular','Fira Code',monospace" font-size="10.2" fill="url(#asciiGrad)" opacity="0" xml:space="preserve">#%@@@@@@@@@@%%%@@%%%%%% . * +# *@%%%#* ::-::::::--<animate attributeName="opacity" values="0;0;1;1;0" keyTimes="0;0.3706;0.3786;0.88;1.0" dur="7.5s" repeatCount="indefinite"/></text>
<text x="64" y="355.2" font-family="Consolas,'SFMono-Regular','Fira Code',monospace" font-size="10.2" fill="url(#asciiGrad)" opacity="0" xml:space="preserve">@@%%%%%%%%%%%%%%@@%%%%#% - %#***%%#%%%%*-:::::::::<animate attributeName="opacity" values="0;0;1;1;0" keyTimes="0;0.3882;0.3962;0.88;1.0" dur="7.5s" repeatCount="indefinite"/></text>
<text x="64" y="366.8" font-family="Consolas,'SFMono-Regular','Fira Code',monospace" font-size="10.2" fill="url(#asciiGrad)" opacity="0" xml:space="preserve">@@%%%%%%%%%%%%%%%%%%%%##% :#@#**%@%%%%#% :::::::--<animate attributeName="opacity" values="0;0;1;1;0" keyTimes="0;0.4059;0.4139;0.88;1.0" dur="7.5s" repeatCount="indefinite"/></text>
<text x="64" y="378.4" font-family="Consolas,'SFMono-Regular','Fira Code',monospace" font-size="10.2" fill="url(#asciiGrad)" opacity="0" xml:space="preserve">@@@%%%%%%%%%%%%%%%%%%%####=+@#%#*@%%%%%%#:::::::::<animate attributeName="opacity" values="0;0;1;1;0" keyTimes="0;0.4235;0.4315;0.88;1.0" dur="7.5s" repeatCount="indefinite"/></text>
<text x="64" y="390.0" font-family="Consolas,'SFMono-Regular','Fira Code',monospace" font-size="10.2" fill="url(#asciiGrad)" opacity="0" xml:space="preserve">@@%%%%%%%%#####%%%%%%%%#### #%%# #@#%%##% ::::::::<animate attributeName="opacity" values="0;0;1;1;0" keyTimes="0;0.4412;0.4492;0.88;1.0" dur="7.5s" repeatCount="indefinite"/></text>
<text x="64" y="401.6" font-family="Consolas,'SFMono-Regular','Fira Code',monospace" font-size="10.2" fill="url(#asciiGrad)" opacity="0" xml:space="preserve">@%%%%%%%%%########%%%%%%###**%##**@%%%##%*::::::--<animate attributeName="opacity" values="0;0;1;1;0" keyTimes="0;0.4588;0.4668;0.88;1.0" dur="7.5s" repeatCount="indefinite"/></text>
<text x="64" y="413.2" font-family="Consolas,'SFMono-Regular','Fira Code',monospace" font-size="10.2" fill="url(#asciiGrad)" opacity="0" xml:space="preserve">%%%%%%%%%%###########%%%%####%***%@%#%###%-:::::--<animate attributeName="opacity" values="0;0;1;1;0" keyTimes="0;0.4765;0.4845;0.88;1.0" dur="7.5s" repeatCount="indefinite"/></text>
<text x="64" y="424.8" font-family="Consolas,'SFMono-Regular','Fira Code',monospace" font-size="10.2" fill="url(#asciiGrad)" opacity="0" xml:space="preserve">%%%%%%%%%%##############%%###%+ *#@@#%%##% :::::--<animate attributeName="opacity" values="0;0;1;1;0" keyTimes="0;0.4941;0.5021;0.88;1.0" dur="7.5s" repeatCount="indefinite"/></text>
<text x="64" y="436.4" font-family="Consolas,'SFMono-Regular','Fira Code',monospace" font-size="10.2" fill="url(#asciiGrad)" opacity="0" xml:space="preserve">%%%%%%%%%###%%%###########%###* **%@#####% ::::---<animate attributeName="opacity" values="0;0;1;1;0" keyTimes="0;0.5118;0.5198;0.88;1.0" dur="7.5s" repeatCount="indefinite"/></text>
<text x="64" y="448.0" font-family="Consolas,'SFMono-Regular','Fira Code',monospace" font-size="10.2" fill="url(#asciiGrad)" opacity="0" xml:space="preserve">%%%%%%%%%###%%%############%%##*+*%@#####%*::::---<animate attributeName="opacity" values="0;0;1;1;0" keyTimes="0;0.5294;0.5374;0.88;1.0" dur="7.5s" repeatCount="indefinite"/></text>
<text x="64" y="459.6" font-family="Consolas,'SFMono-Regular','Fira Code',monospace" font-size="10.2" fill="url(#asciiGrad)" opacity="0" xml:space="preserve">%%%%%%%%%###%@%#############%%##+*#@%####%#-::----<animate attributeName="opacity" values="0;0;1;1;0" keyTimes="0;0.5471;0.5551;0.88;1.0" dur="7.5s" repeatCount="indefinite"/></text>
<text x="64" y="471.2" font-family="Consolas,'SFMono-Regular','Fira Code',monospace" font-size="10.2" fill="url(#asciiGrad)" opacity="0" xml:space="preserve">%%%%%%%%####%%###############@%#**#@%###%%%=:-----<animate attributeName="opacity" values="0;0;1;1;0" keyTimes="0;0.5647;0.5727;0.88;1.0" dur="7.5s" repeatCount="indefinite"/></text>
<text x="64" y="482.8" font-family="Consolas,'SFMono-Regular','Fira Code',monospace" font-size="10.2" fill="url(#asciiGrad)" opacity="0" xml:space="preserve">%%%%%%%%####%%################@%#*%@%###%%% :-----<animate attributeName="opacity" values="0;0;1;1;0" keyTimes="0;0.5824;0.5904;0.88;1.0" dur="7.5s" repeatCount="indefinite"/></text>
  </g>
  <rect x="64" y="498.4" width="6" height="11" fill="#06B6D4">
    <animate attributeName="opacity" values="1;1;0;0;1" keyTimes="0;0.45;0.5;0.95;1" dur="1.1s" repeatCount="indefinite"/>
  </rect>

  <g transform="translate(478,30)">
    <circle cx="20" cy="24" r="5" fill="#EF4444"/>
    <circle cx="38" cy="24" r="5" fill="#F59E0B"/>
    <circle cx="56" cy="24" r="5" fill="#10B981"/>
    <text x="336" y="28" text-anchor="middle" font-family="Consolas,monospace" font-size="10"
          fill="#475569">shreyas@dev  ~  zsh</text>
  </g>

  <text x="814.0" y="114" text-anchor="middle" font-family="-apple-system,Segoe UI,Inter,sans-serif" font-size="21"
        opacity="0">
    <tspan fill="#475569" font-weight="400">Hi 👋 I'm </tspan><tspan fill="url(#nameGrad)" font-weight="700">Shreyas Viswanathan</tspan>
    <animate attributeName="opacity" values="0;1" begin="0.15s" dur="0.6s" fill="freeze"/>
  </text>

  <clipPath id="taglineClip"><rect x="636.5" y="127.0" width="0" height="18"><animate attributeName="width" values="0;355.1" begin="1.5s" dur="1.6s" fill="freeze"/></rect></clipPath>
<text x="636.5" y="140" font-family="-apple-system,Segoe UI,Inter,sans-serif" font-size="13" font-style="italic" fill="#475569" clip-path="url(#taglineClip)">Passionate about computer vision &amp; autonomous systems</text>
<g opacity="0"><animate attributeName="opacity" values="0;1" begin="3.1s" dur="0.01s" fill="freeze"/><rect x="994.6" y="127.0" width="2" height="16" fill="#06B6D4"><animate attributeName="opacity" values="1;1;0;0;1" keyTimes="0;0.45;0.5;0.95;1" dur="1s" repeatCount="indefinite"/></rect></g>

  <text x="514" y="180.0" font-family="-apple-system,Segoe UI,Inter,sans-serif" font-size="10.5" font-weight="700" letter-spacing="1.5" fill="#06B6D4">CURRENTLY BUILDING</text>
<g opacity="0"><animate attributeName="opacity" values="0;0;1;1;0" keyTimes="0;0.01;0.015;0.94;1" dur="10.0s" repeatCount="indefinite"/><circle cx="517" cy="194.0" r="2.5" fill="#10B981"/><text x="528" y="198.0" font-family="-apple-system,Segoe UI,Inter,sans-serif" font-size="12" fill="#0F172A">Voice coaching / speech-pathology tool for actors &amp; voice actors</text></g>
  <text x="514" y="228.0" font-family="-apple-system,Segoe UI,Inter,sans-serif" font-size="10.5" font-weight="700" letter-spacing="1.5" fill="#06B6D4">SELF-LEARNING</text>
<g opacity="0"><animate attributeName="opacity" values="0;0;1;1;0" keyTimes="0;0.07;0.075;0.94;1" dur="10.0s" repeatCount="indefinite"/><circle cx="517" cy="242.0" r="2.5" fill="#10B981"/><text x="528" y="246.0" font-family="-apple-system,Segoe UI,Inter,sans-serif" font-size="12" fill="#0F172A">Deepening PyTorch</text></g>

  <g opacity="0"><animate attributeName="opacity" values="0;0;1;1;0" keyTimes="0;0.015;0.02;0.94;1" dur="10.0s" repeatCount="indefinite"/><rect x="514" y="268.5" width="36" height="16" rx="5" fill="none" stroke="#06B6D4" stroke-opacity="0.5"/><text x="532" y="280.5" font-family="Consolas,monospace" font-size="7.8" text-anchor="middle" fill="#06B6D4" font-weight="700">LOC</text><text x="562" y="277.0" font-family="-apple-system,Segoe UI,Inter,sans-serif" font-size="8.6" fill="#475569">LOCATION</text><text x="562" y="290.0" font-family="Consolas,monospace" font-size="11.5" fill="#0F172A">Urbandale, IA</text></g>
<g opacity="0"><animate attributeName="opacity" values="0;0;1;1;0" keyTimes="0;0.033;0.038;0.94;1" dur="10.0s" repeatCount="indefinite"/><rect x="514" y="295.5" width="36" height="16" rx="5" fill="none" stroke="#06B6D4" stroke-opacity="0.5"/><text x="532" y="307.5" font-family="Consolas,monospace" font-size="7.8" text-anchor="middle" fill="#06B6D4" font-weight="700">EDU</text><text x="562" y="304.0" font-family="-apple-system,Segoe UI,Inter,sans-serif" font-size="8.6" fill="#475569">EDUCATION</text><text x="562" y="317.0" font-family="Consolas,monospace" font-size="11.5" fill="#0F172A">B.S. Computer Science, Purdue University</text></g>
<g opacity="0"><animate attributeName="opacity" values="0;0;1;1;0" keyTimes="0;0.051;0.056;0.94;1" dur="10.0s" repeatCount="indefinite"/><rect x="514" y="322.5" width="36" height="16" rx="5" fill="none" stroke="#06B6D4" stroke-opacity="0.5"/><text x="532" y="334.5" font-family="Consolas,monospace" font-size="7.8" text-anchor="middle" fill="#06B6D4" font-weight="700">NOW</text><text x="562" y="331.0" font-family="-apple-system,Segoe UI,Inter,sans-serif" font-size="8.6" fill="#475569">CURRENT FOCUS</text><text x="562" y="344.0" font-family="Consolas,monospace" font-size="11.5" fill="#0F172A">Full-Stack Dev @ John Deere — Agronomic Data Pipelines &amp; Infra</text></g>
<g opacity="0"><animate attributeName="opacity" values="0;0;1;1;0" keyTimes="0;0.069;0.074;0.94;1" dur="10.0s" repeatCount="indefinite"/><rect x="514" y="349.5" width="36" height="16" rx="5" fill="none" stroke="#06B6D4" stroke-opacity="0.5"/><text x="532" y="361.5" font-family="Consolas,monospace" font-size="7.8" text-anchor="middle" fill="#06B6D4" font-weight="700">WEB</text><text x="562" y="358.0" font-family="-apple-system,Segoe UI,Inter,sans-serif" font-size="8.6" fill="#475569">PORTFOLIO</text><text x="562" y="371.0" font-family="Consolas,monospace" font-size="11.5" fill="#0F172A">sviswanathan.vercel.app</text></g>
<g opacity="0"><animate attributeName="opacity" values="0;0;1;1;0" keyTimes="0;0.087;0.092;0.94;1" dur="10.0s" repeatCount="indefinite"/><rect x="514" y="376.5" width="36" height="16" rx="5" fill="none" stroke="#06B6D4" stroke-opacity="0.5"/><text x="532" y="388.5" font-family="Consolas,monospace" font-size="7.8" text-anchor="middle" fill="#06B6D4" font-weight="700">MAIL</text><text x="562" y="385.0" font-family="-apple-system,Segoe UI,Inter,sans-serif" font-size="8.6" fill="#475569">EMAIL</text><text x="562" y="398.0" font-family="Consolas,monospace" font-size="11.5" fill="#0F172A">shreyasviswanathan1@gmail.com</text></g>

  <text x="514" y="433" font-family="-apple-system,Segoe UI,Inter,sans-serif"
        font-size="10.5" font-weight="700" letter-spacing="1.5" fill="#475569">SKILLS &amp; TOOLS</text>

  <g transform="translate(514.0,449.0)"><rect x="-3" y="-3" width="56.4" height="24" rx="12" fill="#06B6D4" opacity="0.18" filter="url(#softGlow)"><animate attributeName="opacity" values="0.10;0.30;0.10" dur="3.2s" begin="0.00s" repeatCount="indefinite"/></rect><rect x="0" y="0" width="50.4" height="18" rx="9" fill="rgba(15,23,42,0.035)" stroke="#2563EB" stroke-opacity="0.35"/><text x="25.2" y="12.5" text-anchor="middle" font-family="-apple-system,Segoe UI,Inter,sans-serif" font-size="9.5" font-weight="600" fill="#0F172A">Python</text></g>
<g transform="translate(571.4,449.0)"><rect x="-3" y="-3" width="30.8" height="24" rx="12" fill="#06B6D4" opacity="0.18" filter="url(#softGlow)"><animate attributeName="opacity" values="0.10;0.30;0.10" dur="3.2s" begin="0.40s" repeatCount="indefinite"/></rect><rect x="0" y="0" width="24.8" height="18" rx="9" fill="rgba(15,23,42,0.035)" stroke="#2563EB" stroke-opacity="0.35"/><text x="12.4" y="12.5" text-anchor="middle" font-family="-apple-system,Segoe UI,Inter,sans-serif" font-size="9.5" font-weight="600" fill="#0F172A">Go</text></g>
<g transform="translate(603.2,449.0)"><rect x="-3" y="-3" width="82.0" height="24" rx="12" fill="#06B6D4" opacity="0.18" filter="url(#softGlow)"><animate attributeName="opacity" values="0.10;0.30;0.10" dur="3.2s" begin="0.80s" repeatCount="indefinite"/></rect><rect x="0" y="0" width="76.0" height="18" rx="9" fill="rgba(15,23,42,0.035)" stroke="#2563EB" stroke-opacity="0.35"/><text x="38.0" y="12.5" text-anchor="middle" font-family="-apple-system,Segoe UI,Inter,sans-serif" font-size="9.5" font-weight="600" fill="#0F172A">TypeScript</text></g>
<g transform="translate(686.2,449.0)"><rect x="-3" y="-3" width="50.0" height="24" rx="12" fill="#06B6D4" opacity="0.18" filter="url(#softGlow)"><animate attributeName="opacity" values="0.10;0.30;0.10" dur="3.2s" begin="1.20s" repeatCount="indefinite"/></rect><rect x="0" y="0" width="44.0" height="18" rx="9" fill="rgba(15,23,42,0.035)" stroke="#2563EB" stroke-opacity="0.35"/><text x="22.0" y="12.5" text-anchor="middle" font-family="-apple-system,Segoe UI,Inter,sans-serif" font-size="9.5" font-weight="600" fill="#0F172A">React</text></g>
<g transform="translate(737.2,449.0)"><rect x="-3" y="-3" width="62.8" height="24" rx="12" fill="#06B6D4" opacity="0.18" filter="url(#softGlow)"><animate attributeName="opacity" values="0.10;0.30;0.10" dur="3.2s" begin="1.60s" repeatCount="indefinite"/></rect><rect x="0" y="0" width="56.8" height="18" rx="9" fill="rgba(15,23,42,0.035)" stroke="#2563EB" stroke-opacity="0.35"/><text x="28.4" y="12.5" text-anchor="middle" font-family="-apple-system,Segoe UI,Inter,sans-serif" font-size="9.5" font-weight="600" fill="#0F172A">FastAPI</text></g>
<g transform="translate(801.0,449.0)"><rect x="-3" y="-3" width="62.8" height="24" rx="12" fill="#06B6D4" opacity="0.18" filter="url(#softGlow)"><animate attributeName="opacity" values="0.10;0.30;0.10" dur="3.2s" begin="0.00s" repeatCount="indefinite"/></rect><rect x="0" y="0" width="56.8" height="18" rx="9" fill="rgba(15,23,42,0.035)" stroke="#2563EB" stroke-opacity="0.35"/><text x="28.4" y="12.5" text-anchor="middle" font-family="-apple-system,Segoe UI,Inter,sans-serif" font-size="9.5" font-weight="600" fill="#0F172A">PyTorch</text></g>
<g transform="translate(864.8,449.0)"><rect x="-3" y="-3" width="94.8" height="24" rx="12" fill="#06B6D4" opacity="0.18" filter="url(#softGlow)"><animate attributeName="opacity" values="0.10;0.30;0.10" dur="3.2s" begin="0.40s" repeatCount="indefinite"/></rect><rect x="0" y="0" width="88.8" height="18" rx="9" fill="rgba(15,23,42,0.035)" stroke="#2563EB" stroke-opacity="0.35"/><text x="44.4" y="12.5" text-anchor="middle" font-family="-apple-system,Segoe UI,Inter,sans-serif" font-size="9.5" font-weight="600" fill="#0F172A">scikit-learn</text></g>
<g transform="translate(960.6,449.0)"><rect x="-3" y="-3" width="50.0" height="24" rx="12" fill="#06B6D4" opacity="0.18" filter="url(#softGlow)"><animate attributeName="opacity" values="0.10;0.30;0.10" dur="3.2s" begin="0.80s" repeatCount="indefinite"/></rect><rect x="0" y="0" width="44.0" height="18" rx="9" fill="rgba(15,23,42,0.035)" stroke="#2563EB" stroke-opacity="0.35"/><text x="22.0" y="12.5" text-anchor="middle" font-family="-apple-system,Segoe UI,Inter,sans-serif" font-size="9.5" font-weight="600" fill="#0F172A">NumPy</text></g>
<g transform="translate(1011.6,449.0)"><rect x="-3" y="-3" width="56.4" height="24" rx="12" fill="#06B6D4" opacity="0.18" filter="url(#softGlow)"><animate attributeName="opacity" values="0.10;0.30;0.10" dur="3.2s" begin="1.20s" repeatCount="indefinite"/></rect><rect x="0" y="0" width="50.4" height="18" rx="9" fill="rgba(15,23,42,0.035)" stroke="#2563EB" stroke-opacity="0.35"/><text x="25.2" y="12.5" text-anchor="middle" font-family="-apple-system,Segoe UI,Inter,sans-serif" font-size="9.5" font-weight="600" fill="#0F172A">OpenCV</text></g>
<g transform="translate(514.0,475.0)"><rect x="-3" y="-3" width="56.4" height="24" rx="12" fill="#06B6D4" opacity="0.18" filter="url(#softGlow)"><animate attributeName="opacity" values="0.10;0.30;0.10" dur="3.2s" begin="1.60s" repeatCount="indefinite"/></rect><rect x="0" y="0" width="50.4" height="18" rx="9" fill="rgba(15,23,42,0.035)" stroke="#2563EB" stroke-opacity="0.35"/><text x="25.2" y="12.5" text-anchor="middle" font-family="-apple-system,Segoe UI,Inter,sans-serif" font-size="9.5" font-weight="600" fill="#0F172A">Docker</text></g>
<g transform="translate(571.4,475.0)"><rect x="-3" y="-3" width="82.0" height="24" rx="12" fill="#06B6D4" opacity="0.18" filter="url(#softGlow)"><animate attributeName="opacity" values="0.10;0.30;0.10" dur="3.2s" begin="0.00s" repeatCount="indefinite"/></rect><rect x="0" y="0" width="76.0" height="18" rx="9" fill="rgba(15,23,42,0.035)" stroke="#2563EB" stroke-opacity="0.35"/><text x="38.0" y="12.5" text-anchor="middle" font-family="-apple-system,Segoe UI,Inter,sans-serif" font-size="9.5" font-weight="600" fill="#0F172A">Kubernetes</text></g>
<g transform="translate(654.4,475.0)"><rect x="-3" y="-3" width="75.6" height="24" rx="12" fill="#06B6D4" opacity="0.18" filter="url(#softGlow)"><animate attributeName="opacity" values="0.10;0.30;0.10" dur="3.2s" begin="0.40s" repeatCount="indefinite"/></rect><rect x="0" y="0" width="69.6" height="18" rx="9" fill="rgba(15,23,42,0.035)" stroke="#2563EB" stroke-opacity="0.35"/><text x="34.8" y="12.5" text-anchor="middle" font-family="-apple-system,Segoe UI,Inter,sans-serif" font-size="9.5" font-weight="600" fill="#0F172A">Terraform</text></g>
<g transform="translate(731.0,475.0)"><rect x="-3" y="-3" width="37.2" height="24" rx="12" fill="#06B6D4" opacity="0.18" filter="url(#softGlow)"><animate attributeName="opacity" values="0.10;0.30;0.10" dur="3.2s" begin="0.80s" repeatCount="indefinite"/></rect><rect x="0" y="0" width="31.2" height="18" rx="9" fill="rgba(15,23,42,0.035)" stroke="#2563EB" stroke-opacity="0.35"/><text x="15.6" y="12.5" text-anchor="middle" font-family="-apple-system,Segoe UI,Inter,sans-serif" font-size="9.5" font-weight="600" fill="#0F172A">AWS</text></g>
<g transform="translate(769.2,475.0)"><rect x="-3" y="-3" width="69.2" height="24" rx="12" fill="#06B6D4" opacity="0.18" filter="url(#softGlow)"><animate attributeName="opacity" values="0.10;0.30;0.10" dur="3.2s" begin="1.20s" repeatCount="indefinite"/></rect><rect x="0" y="0" width="63.2" height="18" rx="9" fill="rgba(15,23,42,0.035)" stroke="#2563EB" stroke-opacity="0.35"/><text x="31.6" y="12.5" text-anchor="middle" font-family="-apple-system,Segoe UI,Inter,sans-serif" font-size="9.5" font-weight="600" fill="#0F172A">Postgres</text></g>
<g transform="translate(839.4,475.0)"><rect x="-3" y="-3" width="69.2" height="24" rx="12" fill="#06B6D4" opacity="0.18" filter="url(#softGlow)"><animate attributeName="opacity" values="0.10;0.30;0.10" dur="3.2s" begin="1.60s" repeatCount="indefinite"/></rect><rect x="0" y="0" width="63.2" height="18" rx="9" fill="rgba(15,23,42,0.035)" stroke="#2563EB" stroke-opacity="0.35"/><text x="31.6" y="12.5" text-anchor="middle" font-family="-apple-system,Segoe UI,Inter,sans-serif" font-size="9.5" font-weight="600" fill="#0F172A">Supabase</text></g>
<g transform="translate(909.6,475.0)"><rect x="-3" y="-3" width="37.2" height="24" rx="12" fill="#06B6D4" opacity="0.18" filter="url(#softGlow)"><animate attributeName="opacity" values="0.10;0.30;0.10" dur="3.2s" begin="0.00s" repeatCount="indefinite"/></rect><rect x="0" y="0" width="31.2" height="18" rx="9" fill="rgba(15,23,42,0.035)" stroke="#2563EB" stroke-opacity="0.35"/><text x="15.6" y="12.5" text-anchor="middle" font-family="-apple-system,Segoe UI,Inter,sans-serif" font-size="9.5" font-weight="600" fill="#0F172A">Git</text></g>

  <line x1="514" y1="509" x2="1114" y2="509"
        stroke="rgba(15,23,42,.08)" stroke-width="1"/>

  <a xlink:href="https://github.com/SXV357" target="_blank"><g transform="translate(514,519)"><circle cx="16" cy="16" r="17" fill="#2563EB" opacity="0.14"><animate attributeName="opacity" values="0.08;0.22;0.08" dur="3s" begin="0.00s" repeatCount="indefinite"/></circle><circle cx="16" cy="16" r="15.5" fill="#F8FAFC" fill-opacity="0.75" stroke="#06B6D4" stroke-opacity="0.4"/><g transform="translate(8,8) scale(1)" fill="#0F172A"><path d="M8 0C3.58 0 0 3.58 0 8c0 3.54 2.29 6.53 5.47 7.59.4.07.55-.17.55-.38 0-.19-.01-.82-.01-1.49-2.01.37-2.53-.49-2.69-.94-.09-.23-.48-.94-.82-1.13-.28-.15-.68-.52-.01-.53.63-.01 1.08.58 1.23.82.72 1.21 1.87.87 2.33.66.07-.52.28-.87.51-1.07-1.78-.2-3.64-.89-3.64-3.95 0-.87.31-1.59.82-2.15-.08-.2-.36-1.02.08-2.12 0 0 .67-.21 2.2.82.64-.18 1.32-.27 2-.27.68 0 1.36.09 2 .27 1.53-1.04 2.2-.82 2.2-.82.44 1.1.16 1.92.08 2.12.51.56.82 1.27.82 2.15 0 3.07-1.87 3.75-3.65 3.95.29.25.54.73.54 1.48 0 1.07-.01 1.93-.01 2.2 0 .21.15.46.55.38A8.01 8.01 0 0016 8c0-4.42-3.58-8-8-8z"/></g><title>GitHub</title></g></a>
<a xlink:href="https://www.linkedin.com/in/shrevis/" target="_blank"><g transform="translate(570,519)"><circle cx="16" cy="16" r="17" fill="#2563EB" opacity="0.14"><animate attributeName="opacity" values="0.08;0.22;0.08" dur="3s" begin="0.50s" repeatCount="indefinite"/></circle><circle cx="16" cy="16" r="15.5" fill="#F8FAFC" fill-opacity="0.75" stroke="#06B6D4" stroke-opacity="0.4"/><g transform="translate(8,8) scale(1)" fill="#0F172A"><path d="M14.5 0h-13C.67 0 0 .67 0 1.5v13c0 .83.67 1.5 1.5 1.5h13c.83 0 1.5-.67 1.5-1.5v-13c0-.83-.67-1.5-1.5-1.5zM4.7 13.4H2.4V6h2.3v7.4zM3.55 5.02c-.74 0-1.34-.6-1.34-1.34 0-.74.6-1.33 1.34-1.33.74 0 1.33.6 1.33 1.33 0 .74-.6 1.34-1.33 1.34zM13.6 13.4h-2.3V9.8c0-.86-.02-1.96-1.2-1.96-1.2 0-1.39.94-1.39 1.9v3.66h-2.3V6h2.2v1.01h.03c.31-.58 1.06-1.2 2.18-1.2 2.33 0 2.76 1.53 2.76 3.52v4.07z"/></g><title>LinkedIn</title></g></a>
<a xlink:href="https://x.com/Shreyas91804735" target="_blank"><g transform="translate(626,519)"><circle cx="16" cy="16" r="17" fill="#2563EB" opacity="0.14"><animate attributeName="opacity" values="0.08;0.22;0.08" dur="3s" begin="1.00s" repeatCount="indefinite"/></circle><circle cx="16" cy="16" r="15.5" fill="#F8FAFC" fill-opacity="0.75" stroke="#06B6D4" stroke-opacity="0.4"/><g transform="translate(8,8) scale(1)" fill="#0F172A"><path d="M16 3.04c-.59.26-1.22.44-1.88.52.68-.41 1.2-1.05 1.44-1.83-.63.38-1.34.65-2.09.8A3.28 3.28 0 0010.9 2c-1.81 0-3.28 1.47-3.28 3.28 0 .26.03.51.09.75C4.98 5.9 2.65 4.65 1.09 2.76c-.28.49-.45 1.05-.45 1.65 0 1.14.58 2.14 1.46 2.73-.54-.02-1.04-.16-1.49-.41v.04c0 1.59 1.13 2.92 2.63 3.22-.28.08-.57.12-.87.12-.21 0-.42-.02-.62-.06.42 1.31 1.64 2.26 3.08 2.29A6.59 6.59 0 010 13.63 9.3 9.3 0 005.03 15c6.03 0 9.33-5 9.33-9.33 0-.14 0-.28-.01-.42.64-.46 1.2-1.04 1.65-1.7z"/></g><title>Twitter</title></g></a>
<a xlink:href="https://sviswanathan.vercel.app" target="_blank"><g transform="translate(682,519)"><circle cx="16" cy="16" r="17" fill="#2563EB" opacity="0.14"><animate attributeName="opacity" values="0.08;0.22;0.08" dur="3s" begin="1.50s" repeatCount="indefinite"/></circle><circle cx="16" cy="16" r="15.5" fill="#F8FAFC" fill-opacity="0.75" stroke="#06B6D4" stroke-opacity="0.4"/><g transform="translate(8,8) scale(1)" fill="#0F172A"><path d="M8 0a8 8 0 100 16A8 8 0 008 0zm5.6 4.8h-2.16A9.9 9.9 0 0010.4 1.9 6.42 6.42 0 0113.6 4.8zM8 1.4c.55.72 1.24 1.86 1.63 3.4H6.37C6.76 3.26 7.45 2.12 8 1.4zM1.4 8c0-.55.06-1.09.17-1.6h2.5a10.9 10.9 0 000 3.2h-2.5A6.4 6.4 0 011.4 8zm.4 3.2h2.16c.29.98.68 1.85 1.14 2.9A6.42 6.42 0 011.8 11.2zm2.16-6.4H1.8a6.42 6.42 0 013.3-2.9c-.46 1.05-.85 1.92-1.14 2.9zM8 14.6c-.55-.72-1.24-1.86-1.63-3.4h3.26c-.39 1.54-1.08 2.68-1.63 3.4zM6.03 9.6a9.6 9.6 0 010-3.2h3.94a9.6 9.6 0 010 3.2H6.03zm.34 4.5c.46-1.05.85-1.92 1.14-2.9h2.98c-.29.98-.68 1.85-1.14 2.9a6.42 6.42 0 01-2.98 0zm4.03-.1c.46-.95.85-1.82 1.14-2.8h2.16a6.42 6.42 0 01-3.3 2.8zm1.5-4.7a10.9 10.9 0 000-3.2h2.5c.11.51.17 1.05.17 1.6s-.06 1.09-.17 1.6h-2.5z"/></g><title>Portfolio</title></g></a>

</g>
</svg>